<svg width="1024" height="1024" viewBox="0 0 1024 1024" fill="none" xmlns="http://www.w3.org/2000/svg">
<path d="M508.088 62.1143C524.834 60.6427 526.156 73.4278 533.675 85.6104C537.605 91.9787 542.62 98.991 546.056 105.395C550.418 105.676 554.787 105.83 559.157 105.858C565.321 98.5468 571.263 91.5356 577.892 84.624C584.428 77.8104 588.852 66.4209 600.856 69.7754C604.059 70.6452 606.85 72.6233 608.731 75.3574C613.141 81.8468 617.882 107.658 622.493 115.704C625.309 120.619 630.359 121.363 635.547 122.464C638.427 121.234 641.422 119.849 644.006 118.071C651.87 112.661 669.464 95.8509 678.478 95.0029C681.532 94.7156 684.402 95.6082 686.742 97.5986C695.028 104.649 697.754 137.388 698.608 149.029C703.774 152.618 705.047 152.975 711.084 154.598C714.21 153.114 717.647 151.435 720.866 150.169C732.756 145.491 742.837 136.416 756.004 135.331C760.921 134.926 767.066 138.63 767.525 143.095C769.119 158.595 766.238 176.76 766.579 192.163C768.226 194.835 771.42 198.183 773.536 200.967C790.686 199.577 806.793 189.091 824.048 189.778C835.976 191.244 834.746 202.58 833.018 210.916C830.181 224.6 824.907 235.712 823.254 249.51C825.944 253.209 828.259 255.074 831.857 257.729C842.264 257.243 873.654 253.866 882 256.971C884.552 257.921 886.765 259.688 887.842 262.234C892.044 272.171 881.668 286.919 877.253 295.38C874.283 301.071 871.427 307.457 869.21 313.486C870.531 318.815 871.354 320.458 874.065 325.087C889.433 327.108 905.089 328.694 920.27 330.727C933.503 341.484 929.598 347.406 921.246 359.861C915.616 368.258 902.347 380.173 902.052 390.094C901.732 400.827 911.248 403.444 919.494 405.599C924.732 406.968 930.32 408.878 935.587 410.302C942.773 411.225 957.603 417.773 954.5 427.625C951.352 437.623 925.716 458.259 917.976 464.903C917.916 469.027 918.317 473.515 918.597 477.659C926.268 483.111 935.773 487.488 943.453 493.316C946.996 495.366 950.663 496.503 954.08 498.821C963.313 505.084 965.578 515.651 956.231 523.156C951.114 527.266 943.796 530.07 937.892 533.597C931.423 537.463 925.033 542.131 918.498 545.882C918.091 550.051 918.08 554.245 918.005 558.434C925.554 565.761 934.212 572.334 941.466 580.055C943.474 582.193 949.59 585.906 950.851 587.841C969.596 616.625 915.813 612.623 904.231 625.843C896.845 635.633 908.872 647.255 914.011 653.821C919.142 660.379 926.706 669.959 928.627 678.118C929.016 681.092 928.579 684.512 926.615 686.621C918.953 694.85 885.118 697.714 874.677 698.671C871.683 703.301 870.669 705.2 869.34 710.522C870.54 714.111 875.122 724.516 876.895 727.829C882.975 739.199 890.22 748.108 887.845 761.77C885.83 764.442 885.22 765.054 882.791 767.3C869.154 769.461 845.995 766.193 831.4 766.7C831.222 766.801 831.039 766.894 830.865 767.003C829.126 768.102 824.795 771.479 823.846 773.39C820.887 779.343 836.758 812.631 833.503 828.043C832.874 828.612 828.937 832.6 828.583 832.738C817.336 837.113 797.205 828.044 785.693 825.084C780.5 823.749 778.163 823.368 773.866 822.723C771.24 826.237 769.025 827.872 766.382 831.975C766.765 844.264 769.008 869.742 767.663 881.061C765.813 883.226 764.043 885.458 762.354 887.751L760.166 888.092C748.546 889.987 737.904 882.004 728.193 877.005C723.437 874.556 715.94 871.14 710.957 869.366C705.124 870.558 703.783 871.404 698.649 874.383C696.857 891.232 695.21 907.154 690.236 923.414L685.739 927.706C659.402 932.264 644.706 889.139 623.493 906.394C618.604 910.371 613.415 944.311 606.907 950.663C603.044 954.434 595.778 955.753 590.571 952.747C579.586 941.908 569.658 929.09 558.827 918.013C554.508 917.965 550.276 918.284 545.97 918.553C541.691 926.255 536.324 933.713 531.764 941.321C526.105 950.761 524.913 959.822 512.48 962.103C498.968 961.713 498.478 950.256 492.701 942.05C487.82 935.116 483.131 925.854 478.366 919.3L477.812 918.544C473.392 918.123 469.809 918.059 465.353 918.005C458.232 925.639 451.819 933.82 444.198 941.219C440.558 945.175 437.062 949.211 432.905 952.626C428.8 955.997 419.03 954.399 416.343 949.914C408.764 937.264 408.172 919.927 401.118 906.967C399.76 904.472 395.216 902.409 392.531 902.207C381.278 900.511 376.544 909.681 369.582 914.202C359.135 920.986 352.609 930.075 339.799 928.396C339.111 927.867 338.437 927.318 337.778 926.752C335.949 925.214 331.62 921.428 331.3 919.313C329.35 906.418 326.528 887.498 325.449 874.854C320.185 871.41 319.202 870.523 313.049 869.4C295.197 874.351 281.263 890.459 261.974 888.088C259.858 886.03 256.691 883.452 256.43 880.333C255.088 864.344 257 847.835 257.664 831.775C255.634 828.88 252.686 825.598 250.344 822.85C233.021 824.775 217.092 834.66 199.978 834.063C185.504 833.559 190.034 814.941 192.456 806.534C195.61 795.589 199.393 785.314 201.347 774.163C198.536 771.155 195.98 768.737 192.479 766.577C183.387 766.298 143.179 770.304 139.232 766.065C138.824 763.873 138.992 763.09 137.407 761.896L136.013 762.248C129.894 741.653 162.827 718.752 150.822 701.273L149.104 698.775C136.489 697.893 110.613 695.036 99.6406 688.419C85.1052 679.653 110.212 654.674 115.926 646.912C122.567 637.891 121.67 637.059 120.759 626.938C113.908 616.617 82.0949 615.72 73.0146 606.631C61.3693 594.974 76.5559 585.594 83.665 578.945C91.2014 571.897 98.8237 565.299 106.081 558.343C106.044 554.513 105.777 550.301 105.612 546.445C100.205 542.394 86.6006 533.533 80.873 530.962C54.3076 519.041 56.2059 503.906 81.4902 492.688C84.3242 491.43 89.0768 487.369 92.0977 485.724C96.578 483.197 101.32 480.521 105.62 477.561C106.01 473.776 106.017 469.24 106.12 465.38C100.36 459.739 90.0685 450.294 83.8525 445.169C38.5121 407.783 110.453 412.114 120.506 397.077L120.854 396.547C122.153 378.486 118.16 381.562 108.899 368.412C99.5374 355.12 86.3828 343.472 104.312 330.695C119.306 328.9 134.701 326.821 149.68 325.282C152.404 320.461 153.591 318.717 154.494 313.222C149.815 297.216 135.637 282.414 135.471 265.72C135.43 261.597 139 258.421 142.13 256.171C158.468 254.808 176.143 257.575 192.433 257.571C195.279 255.457 200.244 252.151 200.528 248.515C201.765 232.612 171.429 185.193 206.868 190.137C221.647 192.199 235.077 199.319 250.156 201.071C252.676 198.084 255.967 194.945 257.654 191.62C257.043 176.485 255.287 158.459 256.367 143.351C256.622 139.786 259.95 137.615 262.798 135.653C276.386 134.072 284.921 141.24 296.433 147.111C301.135 149.51 307.714 152.167 312.724 154.464C318.804 153.452 320.047 152.454 325.367 149.279C325.969 138.9 327.92 128.421 329.401 118.132C329.961 114.243 329.819 110.025 330.865 106.246C331.641 103.44 333.433 100.567 335.498 98.5312C350.755 83.4935 375.086 122.671 391.171 122.121C409.211 121.504 406.6 83.573 416.798 73.2139C419.539 70.429 423.327 69.3428 427.167 69.459C430.285 69.5533 433.082 70.7836 435.524 72.6807C439.329 75.6358 441.614 79.6921 444.711 83.2656C447.367 86.3307 450.386 89.1022 453.135 92.0879C457.275 96.5842 461.158 101.348 465.249 105.899C469.137 105.951 473.974 105.587 477.925 105.397C482.815 97.4241 487.612 89.4996 492.782 81.835C499.19 72.3348 495.448 68.538 508.088 62.1143ZM571.954 188.359C566.704 191.809 556.455 204.378 549.687 210.021C534.751 222.475 521.884 248.612 498.249 233.927C492.769 229.147 487.491 224.452 482.211 219.426C480.435 217.735 475.442 210.722 473.986 209.844C464.273 203.991 460.519 195.218 452.365 188.336C451.925 187.965 448.758 188.376 448.146 188.47C439.065 189.761 429.478 191.561 420.744 194.362C415.93 195.906 411.318 198.014 406.539 199.661C397.232 202.87 387.821 205.769 378.742 209.607C373.425 211.855 368.337 214.804 363.2 217.438C356.67 220.788 349.821 223.912 343.505 227.624C339.788 229.808 336.365 232.465 332.795 234.876C327.807 238.244 322.594 241.243 317.719 244.786C313.658 247.738 310.005 251.199 306.117 254.367C302.274 257.498 297.758 260 294.117 263.342C291.42 265.817 289.341 268.933 286.77 271.535C283.427 274.918 278.997 276.052 276.004 280.05C274.059 282.649 272.409 285.558 270.189 287.93C267.135 291.193 263.439 293.903 260.597 297.354C253.911 305.475 221.471 347.746 222.785 355.284C223.684 360.443 227.253 365.621 229.722 370.191C234.58 379.186 238.647 388.473 243.242 397.585C246.053 403.16 250.081 408.209 251.434 414.409C252.725 420.322 252.211 426.472 248.928 431.669C247.158 434.469 244.721 436.757 242.292 438.976C257.541 438.681 272.97 438.892 288.15 438.388C288.508 445.498 289.833 452.638 291.046 459.659C305.684 433.994 354.748 428.091 378.83 442.116C402.656 455.992 400.407 484.208 400.446 507.674L400.533 552.287C407.956 552.171 415.053 552.056 422.47 552.284C423.013 564.77 422.623 577.324 422.904 589.812C410.459 590.509 396.105 590.151 383.504 590.157C362.931 590.229 342.358 590.134 321.787 589.872C321.743 577.45 321.497 564.204 321.807 551.848C327.742 551.896 334.227 551.827 340.111 552.056C340.266 541.23 340.277 530.402 340.145 519.575C340.079 502.565 343.332 477.375 318.484 478.387C310.804 478.7 303.823 479.625 298.163 485.547C295.717 488.059 294.025 491.208 293.282 494.635C292.39 498.735 292.782 511.489 292.812 516.461L292.854 552.342L311.319 552.246C311.561 564.778 311.656 577.312 311.603 589.846C292.34 590.093 273.075 590.176 253.811 590.094C239.38 590.12 222.758 590.497 208.459 589.758C208.654 577.27 208.778 564.782 208.83 552.293C216.248 552.193 223.667 552.177 231.085 552.244C231.355 526.927 231.433 501.609 231.318 476.291C224.317 476.256 216.715 476.355 209.75 476.136C209.819 469.562 209.903 463.656 210.349 457.098C203.431 460.279 189.967 465.89 184.13 469.877C175.259 559.868 193.393 645.503 251.839 716.701L253.977 719.3C256.497 722.563 259.818 727.496 262.268 730.353C264.801 733.305 268.979 735.855 271.895 739.347L314.039 733.261C329.209 731.222 353.345 725.966 358.561 745.879C361.628 757.584 362.452 769.861 364.481 781.788C366.258 791.699 368.517 801.855 370.641 811.657C380.926 818.459 394.503 821.739 406.193 825.466C412.145 827.364 417.856 830.251 423.884 831.837C474.187 845.073 532.049 846.277 582.963 835.84C589.018 834.599 595.205 833.272 601.136 831.532C607.225 829.746 613.115 827.066 619.137 825.033C628.373 821.914 638.286 819.425 647.099 815.271C648.921 814.412 651.22 813.27 652.345 811.52C654.644 807.942 655.145 802.642 655.978 798.503C657.206 792.402 658.525 786.279 659.474 780.128C661.15 769.256 662.147 748.174 668.422 739.327C671.32 735.242 675.853 733.188 680.585 731.989C693.908 728.611 735.728 737.766 752.123 739.346C753.73 737.719 755.478 735.815 757.188 734.332C763.457 728.897 767.542 721.951 772.736 715.501C790.824 693.357 805.542 668.664 816.415 642.219C836.132 595.364 841.86 556.879 841.525 506.139C841.499 493.97 840.955 481.807 839.893 469.683L839.092 469.189C832.836 465.391 826.106 463.498 819.784 459.975C807.542 453.15 791.476 447.135 780.648 438.659C773.878 433.358 769.084 420.519 772.805 412.989C781.328 395.737 790.356 377.271 799.438 360.252C804.315 351.114 794.851 342.822 790.812 335.651C784.555 324.444 777.617 315.898 769.628 306.045C763.833 298.898 760.755 294.159 753.642 287.671C748.532 283.011 744.48 275.551 737.635 271.655C734.619 269.19 731.473 264.555 728.432 262.38C718.798 255.487 710.316 247.982 700.572 241.2C687.473 232.082 675.781 225.078 661.524 217.987C647.976 211.249 636.056 205.117 621.312 200.932C605.665 195.289 589.196 189.712 572.514 188L571.954 188.359ZM739.273 786.49C737.294 772.345 724.212 762.491 710.071 764.494C695.963 766.492 686.137 779.537 688.112 793.647C690.086 807.758 703.114 817.606 717.228 815.656C731.377 813.701 741.252 800.635 739.273 786.49ZM335.884 785.844C333.569 771.833 320.365 762.328 306.343 764.579C292.232 766.844 282.651 780.152 284.981 794.253C287.31 808.355 300.662 817.873 314.753 815.479C328.753 813.101 338.198 799.855 335.884 785.844ZM205.21 389.447C199.405 382.097 190.066 378.479 180.823 379.999C167.059 382.264 157.601 395.076 159.49 408.896C161.38 422.716 173.93 432.519 187.796 431.006C197.108 429.99 205.133 423.998 208.753 415.36C212.373 406.721 211.016 396.798 205.21 389.447ZM837.043 379.708C829.286 380.261 825.673 381.9 820.132 387.859C810.792 397.904 811.846 416.821 822.28 425.688C827.703 430.296 835.346 431.356 842.247 430.593L843.01 430.506C850.746 429.139 855.84 426.364 860.499 419.736C864.39 414.282 865.85 407.462 864.533 400.893C862.996 393.446 856.63 387.062 850.63 382.623C846.614 379.651 841.854 379.701 837.043 379.708ZM510.889 142.57C496.841 142.954 485.72 154.576 485.957 168.628C486.193 182.679 497.698 193.921 511.751 193.832C520.974 193.774 529.455 188.766 533.96 180.718C538.465 172.67 538.298 162.822 533.525 154.93C528.752 147.038 520.109 142.318 510.889 142.57Z" fill="#858585"/>
<path d="M540.619 438.078L629.341 437.99C629.654 450.15 629.497 462.839 629.496 475.047L610.154 474.895C607.765 482.188 600.757 495.742 597.203 503.276C589.483 519.564 581.945 535.938 574.59 552.394C562.762 576.418 553.683 604.024 538.906 626.06C523.624 648.849 499.803 656.355 473.548 653.733C453.057 651.687 434.237 640.869 436.334 617.468C437.683 602.417 452.589 593.36 466.672 596.059C482.957 599.215 485.616 608.691 482.874 623.229C486.301 622.386 488.327 621.819 491.378 619.992C498.582 615.678 503.922 602.181 505.448 594.269C500.902 590.005 478.397 544.844 474.246 537.151L453.448 498.522C449.506 491.194 444.414 482.301 441.115 474.805C435.106 474.414 428.694 474.61 422.681 474.821C422.278 464.919 422.221 447.806 422.899 438.127L526.943 438.112C527.073 449.259 527.316 463.975 526.602 474.91C519.976 474.933 513.94 474.94 507.325 474.591C515.403 491.143 529.728 519.751 535.302 536.216C541.895 519.066 550.68 502.768 557.609 485.76C558.699 483.084 559.402 480.65 560.837 478.104L560.614 480.332L561.028 480.213C562.191 478.424 562.997 477.311 562.209 475.186C558.502 474.621 545.377 475.075 540.95 475.142C540.153 464.111 540.49 449.274 540.619 438.078Z" fill="#858585"/>
<path d="M715.869 434.216C743.575 433.148 769.615 435.829 791.113 454.015C834.576 490.781 822.494 570.678 766.712 588.745C754.877 592.578 748.464 593.766 736.391 594.912C686.317 598.321 637.903 577.946 634.077 522.336C630.409 469.019 664.17 437.228 715.869 434.216ZM750.561 494.021C746.946 476.837 737.017 471.808 720.595 473.132C708.453 475.421 701.941 484.278 700.202 495.776C696.396 520.947 694.906 561.74 731.442 556.009C737.373 554.705 742.586 552.167 745.666 546.628C753.712 532.161 753.871 509.761 750.561 494.021Z" fill="#858585"/>
</svg>
